PathFileType	4	(x/y/z)	A01_FAST_T0022.trc
DataRate	CameraRate	NumFrames	NumMarkers	Units	OrigDataRate	OrigDataStartFrame	OrigNumFrames
240	240	9	48	mm	240	262	299
Frame#	Time	TOP_HEAD			R_AC			L_AC			R_ASIS			L_ASIS			R_PSIS			L_PSIS			SACRAL			L_IC			R_IC			L_GT			R_GT			R_LAT_KNEE			R_MED_KNEE			L_MED_KNEE			L_LAT_KNEE			R_TOE			L_TOE			R_1ST_MET			L_1ST_MET			L_5TH_MET			R_5TH_MET			R_LAT_ANK			R_MED_ANK			L_MED_ANK			L_LAT_ANK			L_HEEL_SUP			R_HEEL_SUP			L_HEEL_LAT			R_HEEL_LAT			L_HEEL_MED			R_HEEL_MED			R_LL_PROX_POST			R_LL_PROX_ANT			R_LL_DIST_ANT			R_LL_DIST_POST			R_THIGH_PROX_POST			R_THIGH_PROX_ANT			R_THIGH_DIST_ANT			R_THIGH_DIST_POST			L_PROS_PROX_ANT			L_PROS_PROX_POST			L_PROS_DIST_POST			L_PROS_DIST_ANT			L_THIGH_PROX_ANT			L_THIGH_PROX_POST			L_THIGH_DIST_POST			L_THIGH_DIST_ANT			
		X1	Y1	Z1	X2	Y2	Z2	X3	Y3	Z3	X4	Y4	Z4	X5	Y5	Z5	X6	Y6	Z6	X7	Y7	Z7	X8	Y8	Z8	X9	Y9	Z9	X10	Y10	Z10	X11	Y11	Z11	X12	Y12	Z12	X13	Y13	Z13	X14	Y14	Z14	X15	Y15	Z15	X16	Y16	Z16	X17	Y17	Z17	X18	Y18	Z18	X19	Y19	Z19	X20	Y20	Z20	X21	Y21	Z21	X22	Y22	Z22	X23	Y23	Z23	X24	Y24	Z24	X25	Y25	Z25	X26	Y26	Z26	X27	Y27	Z27	X28	Y28	Z28	X29	Y29	Z29	X30	Y30	Z30	X31	Y31	Z31	X32	Y32	Z32	X33	Y33	Z33	X34	Y34	Z34	X35	Y35	Z35	X36	Y36	Z36	X37	Y37	Z37	X38	Y38	Z38	X39	Y39	Z39	X40	Y40	Z40	X41	Y41	Z41	X42	Y42	Z42	X43	Y43	Z43	X44	Y44	Z44	X45	Y45	Z45	X46	Y46	Z46	X47	Y47	Z47	X48	Y48	Z48	

262	1.0911	1026.8	1746.5	275.45	792.84	1582.7	537.31	744.88	1560.4	81.153	755.84	1101.1	528.87	780.81	1041.5	176.3	548.9	1113.9	384.68	566.96	1100.4	256.87	539.87	1078.8	318.4	747.35	1167	130.83	729.54	1216.2	530.06	729.38	960.18	130.54	674.48	997.11	560.93	566.03	602.14	481.15	600.42	597.78	351.66	888.8	580.53	352.21	861.87	583.35	194.29	631.43	64.936	356.58	1237.8	202.89	226.2	550.57	55.185	314.15	1178.7	141.73	281.57	1151.3	125.2	154.51	527.57	46.927	449.5	435.35	150.79	429.18	443.73	159.81	327.86	1025.7	164.12	270.3	1001.4	147.52	204.35	950.26	59.049	242.78	331.51	149.24	374.28	969.76	37.662	212.26	332.34	122.3	408.69	981.02	39.908	274.88	332.28	121.8	348.54	434.42	450.98	471.28	500.03	425.87	491.27	487.11	353.86	470.54	433.84	368.65	459.23	599.59	870.4	530.37	671.53	870.76	542.58	653.18	782.32	528.58	585	783.71	516.07	938.17	526.8	202.74	888	503.65	192.74	908.1	443.6	198.21	953.91	472.29	207.52	836.71	840.48	173.64	772.68	823.15	144.72	804.79	755.59	161.44	863.41	772.5	186.46
263	1.0953	1032.8	1745.1	275.02	798.86	1581.6	537.03	750.4	1559.2	81.017	761.55	1100.2	528.55	787.35	1039.9	176.01	554.87	1112.7	383.74	573.2	1098.7	256.04	546.02	1077.3	317.56	753.42	1165.7	130.52	735.03	1215.1	529.66	735.96	958.42	130.27	679.92	996.46	560.59	569.38	602.14	481.07	603.98	597.44	351.66	895.29	579.36	353.14	868.77	581.93	195.15	631.42	64.918	356.6	1249.5	206.5	227.96	550.67	55.163	314.14	1191.1	144.46	283.18	1164.3	127.62	155.95	527.72	46.879	449.56	436.1	151.34	429.29	444.54	160.43	327.98	1038	164.72	271.42	1013.9	147.81	205.37	963.85	58.585	243.61	332.25	150.29	374.39	983.77	37.459	213.14	332.93	123.32	408.75	994.82	39.871	275.82	332.82	122.92	348.57	436.85	451.74	471.16	502.28	426.27	491.28	488.99	354.32	470.63	435.82	369.41	459.25	604.46	870.27	530.08	676.36	870.26	542.41	657.56	781.91	528.43	589.36	783.68	515.89	945.8	526.34	203.78	895.93	502.55	193.64	916.8	442.76	199.11	962.24	472.01	208.6	843.27	838.89	173.6	779.32	821.41	144.61	811.48	753.92	161.6	870	770.98	186.72
264	1.0995	1038.7	1743.7	274.57	804.91	1580.4	536.74	755.94	1558	80.875	767.29	1099.3	528.22	793.9	1038.3	175.72	560.85	1111.5	382.8	579.45	1097.1	255.21	552.18	1075.9	316.72	759.47	1164.5	130.22	740.53	1213.9	529.26	742.56	956.65	130	685.39	995.79	560.26	572.79	602.1	481	607.6	597.07	351.67	901.87	578.22	354.07	875.75	580.55	196.01	631.41	64.901	356.62	1260.8	209.82	229.7	550.76	55.14	314.14	1203.1	146.97	284.77	1176.8	129.85	157.39	527.87	46.831	449.61	436.86	151.9	429.41	445.37	161.06	328.11	1049.9	165.27	272.55	1026	148.08	206.42	976.97	58.165	244.5	333.02	151.36	374.51	997.28	37.282	214.07	333.54	124.36	408.82	1008.1	39.844	276.8	333.38	124.07	348.6	439.34	452.5	471.05	504.59	426.65	491.3	490.92	354.76	470.72	437.86	370.17	459.28	609.37	870.12	529.8	681.23	869.73	542.24	661.98	781.47	528.28	593.78	783.62	515.7	953.45	525.85	204.82	903.85	501.47	194.55	925.43	441.92	200.01	970.53	471.7	209.68	849.9	837.34	173.61	786.04	819.69	144.54	818.27	752.28	161.8	876.68	769.5	187.02
265	1.1037	1044.7	1742.3	274.12	810.98	1579.2	536.44	761.49	1556.7	80.724	773.04	1098.4	527.9	800.49	1036.7	175.44	566.84	1110.2	381.87	585.7	1095.4	254.38	558.36	1074.4	315.88	765.52	1163.2	129.92	746.05	1212.7	528.85	749.19	954.9	129.73	690.88	995.09	559.92	576.28	602.04	480.93	611.29	596.68	351.68	908.54	577.09	354.97	882.82	579.2	196.87	631.4	64.884	356.64	1271.8	212.81	231.42	550.86	55.118	314.13	1214.7	149.22	286.36	1188.9	131.86	158.82	528.02	46.782	449.67	437.65	152.47	429.53	446.21	161.69	328.25	1061.4	165.74	273.71	1037.8	148.28	207.5	989.61	57.775	245.44	333.82	152.45	374.65	1010.3	37.113	215.05	334.18	125.43	408.91	1020.9	39.811	277.83	333.96	125.24	348.64	441.9	453.25	470.95	506.95	427.02	491.33	492.89	355.19	470.82	439.95	370.92	459.31	614.34	869.94	529.5	686.14	869.19	542.08	666.46	781.01	528.14	598.26	783.52	515.5	961.11	525.33	205.85	911.77	500.4	195.46	934	441.09	200.93	978.78	471.33	210.76	856.62	835.84	173.66	792.84	818.02	144.51	825.14	750.69	162.04	883.45	768.08	187.36
266	1.1079	1050.7	1740.9	273.66	817.08	1577.9	536.13	767.06	1555.4	80.562	778.82	1097.5	527.57	807.1	1035.2	175.16	572.84	1109	380.93	591.97	1093.7	253.55	564.57	1072.9	315.04	771.58	1162	129.64	751.59	1211.5	528.44	755.84	953.15	129.47	696.39	994.38	559.59	579.84	601.96	480.87	615.07	596.25	351.69	915.32	575.98	355.85	889.96	577.88	197.72	631.39	64.868	356.66	1282.5	215.45	233.11	550.96	55.095	314.13	1225.8	151.21	287.92	1200.5	133.63	160.26	528.17	46.733	449.73	438.46	153.05	429.67	447.08	162.34	328.4	1072.6	166.12	274.9	1049.2	148.42	208.61	1001.8	57.399	246.44	334.65	153.57	374.81	1022.7	36.935	216.09	334.85	126.53	409.01	1033.2	39.756	278.91	334.56	126.45	348.69	444.53	453.99	470.85	509.38	427.37	491.36	494.92	355.61	470.91	442.09	371.67	459.36	619.35	869.73	529.21	691.09	868.62	541.93	670.98	780.53	528.01	602.79	783.39	515.3	968.78	524.76	206.85	919.68	499.35	196.36	942.49	440.26	201.85	986.97	470.92	211.82	863.42	834.39	173.75	799.73	816.4	144.52	832.11	749.15	162.32	890.3	766.72	187.74
267	1.1121	1056.8	1739.5	273.19	823.2	1576.7	535.81	772.68	1554	80.383	784.62	1096.5	527.24	813.74	1033.6	174.89	578.86	1107.8	380	598.26	1092	252.72	570.79	1071.4	314.21	777.64	1160.7	129.35	757.15	1210.4	528.02	762.53	951.43	129.23	701.94	993.65	559.26	583.48	601.84	480.81	618.92	595.8	351.72	922.2	574.9	356.71	897.17	576.59	198.55	631.38	64.852	356.67	1292.8	217.72	234.78	551.06	55.073	314.12	1236.6	152.9	289.48	1211.6	135.14	161.69	528.33	46.686	449.79	439.3	153.64	429.81	447.98	162.99	328.56	1083.3	166.4	276.1	1060.1	148.48	209.75	1013.4	57.028	247.52	335.52	154.72	374.98	1034.7	36.735	217.21	335.54	127.65	409.13	1045	39.668	280.05	335.18	127.7	348.74	447.23	454.73	470.77	511.88	427.71	491.4	497.01	356.02	471.01	444.3	372.42	459.42	624.41	869.48	528.9	696.09	868.04	541.79	675.56	780.02	527.89	607.38	783.22	515.09	976.45	524.15	207.84	927.57	498.31	197.26	950.9	439.42	202.76	995.11	470.44	212.86	870.29	832.99	173.9	806.7	814.83	144.58	839.16	747.66	162.64	897.24	765.41	188.16
268	1.1162	1062.8	1738.1	272.7	829.35	1575.4	535.47	778.33	1552.6	80.186	790.46	1095.6	526.92	820.42	1032.2	174.63	584.9	1106.5	379.07	604.58	1090.3	251.9	577.04	1069.9	313.38	783.72	1159.4	129.08	762.75	1209.2	527.6	769.25	949.73	128.99	707.51	992.9	558.94	587.21	601.7	480.76	622.86	595.31	351.76	929.18	573.86	357.53	904.45	575.32	199.35	631.37	64.836	356.68	1302.7	219.59	236.41	551.16	55.05	314.12	1247	154.29	291.02	1222.3	136.37	163.13	528.5	46.64	449.86	440.18	154.24	429.96	448.91	163.66	328.72	1093.7	166.56	277.33	1070.7	148.43	210.93	1024.6	56.652	248.67	336.44	155.89	375.17	1046.1	36.499	218.41	336.28	128.81	409.26	1056.3	39.535	281.26	335.84	128.98	348.8	450.01	455.46	470.7	514.45	428.04	491.45	499.15	356.42	471.12	446.58	373.17	459.49	629.51	869.21	528.6	701.13	867.43	541.66	680.2	779.48	527.78	612.03	783.02	514.88	984.13	523.48	208.79	935.44	497.26	198.13	959.22	438.55	203.68	1003.2	469.91	213.88	877.24	831.65	174.1	813.74	813.31	144.7	846.29	746.23	163.01	904.26	764.15	188.62
269	1.1204	1068.9	1736.7	272.21	835.53	1574.1	535.12	784.04	1551.3	79.966	796.32	1094.6	526.59	827.15	1030.7	174.38	590.97	1105.2	378.16	610.93	1088.6	251.08	583.33	1068.4	312.56	789.83	1158.1	128.81	768.38	1208.1	527.17	776.02	948.07	128.76	713.11	992.13	558.63	591.03	601.53	480.72	626.88	594.79	351.81	936.26	572.84	358.31	911.78	574.08	200.12	631.35	64.82	356.69	1312.3	221.07	238	551.27	55.027	314.13	1257	155.37	292.55	1232.6	137.3	164.57	528.67	46.597	449.92	441.08	154.87	430.12	449.88	164.34	328.89	1103.6	166.58	278.59	1080.8	148.27	212.15	1035.3	56.265	249.91	337.4	157.1	375.37	1056.9	36.221	219.68	337.05	130.01	409.4	1067	39.351	282.54	336.53	130.3	348.86	452.87	456.18	470.63	517.11	428.35	491.5	501.36	356.8	471.22	448.93	373.92	459.56	634.67	868.9	528.29	706.23	866.81	541.55	684.89	778.93	527.68	616.75	782.77	514.66	991.79	522.76	209.71	943.28	496.21	198.99	967.45	437.67	204.58	1011.2	469.3	214.87	884.27	830.37	174.35	820.86	811.85	144.86	853.49	744.86	163.41	911.36	762.96	189.13
270	1.1246	1074.9	1735.3	271.7	841.75	1572.8	534.74	789.8	1549.8	79.721	802.22	1093.6	526.28	833.93	1029.3	174.15	597.07	1104	377.25	617.31	1086.9	250.28	589.65	1066.9	311.75	795.97	1156.9	128.55	774.07	1206.9	526.74	782.82	946.44	128.56	718.74	991.35	558.32	594.94	601.32	480.69	631.01	594.24	351.87	943.43	571.85	359.06	919.17	572.85	200.85	631.34	64.804	356.69	1321.7	222.13	239.57	551.38	55.004	314.13	1266.5	156.12	294.07	1242.4	137.92	166.02	528.86	46.557	449.98	442.03	155.51	430.3	450.88	165.04	329.07	1113.2	166.48	279.88	1090.5	147.98	213.41	1045.4	55.864	251.22	338.41	158.35	375.59	1067.2	35.895	221.04	337.87	131.25	409.56	1077.2	39.11	283.89	337.26	131.67	348.93	455.83	456.9	470.58	519.84	428.64	491.57	503.64	357.18	471.33	451.36	374.66	459.65	639.87	868.56	527.98	711.37	866.16	541.44	689.65	778.35	527.59	621.54	782.49	514.45	999.45	521.97	210.59	951.09	495.16	199.82	975.59	436.75	205.47	1019.2	468.62	215.83	891.37	829.15	174.65	828.06	810.45	145.07	860.77	743.55	163.85	918.52	761.81	189.67
